<svg xmlns="http://www.w3.org/2000/svg" width="800" height="500" viewBox="0 0 800 500">
  <rect width="800" height="500" fill="#f8f9fc" rx="12"/>
  <rect x="0" y="0" width="800" height="44" fill="#1a1a24"/>
  <circle cx="20" cy="22" r="10" fill="#6c5ce7"/>
  <text x="36" y="27" fill="#f0f0f5" font-size="13" font-weight="700" font-family="Tajawal,sans-serif">قلم</text>
  <rect x="80" y="10" width="50" height="24" rx="6" fill="#23232f"/>
  <text x="88" y="26" fill="#9090a8" font-size="10" font-family="Tajawal,sans-serif">ملف ▼</text>
  <rect x="140" y="10" width="60" height="24" rx="6" fill="#23232f"/>
  <text x="148" y="26" fill="#9090a8" font-size="10" font-family="Tajawal,sans-serif">تعديل ▼</text>
  <rect x="210" y="10" width="50" height="24" rx="6" fill="#23232f"/>
  <text x="218" y="26" fill="#9090a8" font-size="10" font-family="Tajawal,sans-serif">عرض ▼</text>
  <line x1="280" y1="8" x2="280" y2="36" stroke="#2e2e42" stroke-width="1"/>
  <rect x="292" y="8" width="32" height="28" rx="6" fill="#6c5ce7"/>
  <path d="M300 18 Q305 14 308 20 L312 16 L318 28 L295 28 Z" fill="white"/>
  <rect x="330" y="8" width="32" height="28" rx="6" fill="#23232f"/>
  <line x1="340" y1="14" x2="352" y2="30" stroke="#ff6b6b" stroke-width="2" stroke-linecap="round"/>
  <rect x="368" y="8" width="32" height="28" rx="6" fill="#23232f"/>
  <rect x="376" y="12" width="16" height="20" rx="2" fill="none" stroke="#ffa94d" stroke-width="2"/>
  <line x1="420" y1="8" x2="420" y2="36" stroke="#2e2e42" stroke-width="1"/>
  <rect x="432" y="8" width="32" height="28" rx="6" fill="#23232f"/>
  <line x1="442" y1="14" x2="454" y2="30" stroke="#00d68f" stroke-width="2" stroke-linecap="round"/>
  <rect x="470" y="8" width="32" height="28" rx="6" fill="#23232f"/>
  <polygon points="478,14 490,30 466,30" fill="none" stroke="#00d68f" stroke-width="2"/>
  <rect x="508" y="8" width="32" height="28" rx="6" fill="#23232f"/>
  <rect x="516" y="12" width="16" height="20" rx="2" fill="none" stroke="#00d68f" stroke-width="2"/>
  <rect x="546" y="8" width="32" height="28" rx="6" fill="#23232f"/>
  <circle cx="562" cy="22" r="8" fill="none" stroke="#00d68f" stroke-width="2"/>
  <rect x="584" y="8" width="32" height="28" rx="6" fill="#23232f"/>
  <polygon points="592,14 604,30 580,30" fill="none" stroke="#00d68f" stroke-width="2"/>
  <rect x="622" y="8" width="32" height="28" rx="6" fill="#23232f"/>
  <text x="630" y="27" fill="#9090a8" font-size="16" font-weight="700" text-anchor="middle" font-family="sans-serif">T</text>
  <rect x="660" y="8" width="32" height="28" rx="6" fill="#23232f"/>
  <circle cx="670" cy="16" r="4" fill="none" stroke="#00d68f" stroke-width="1.5"/>
  <circle cx="682" cy="28" r="4" fill="none" stroke="#00d68f" stroke-width="1.5"/>
  <line x1="674" y1="19" x2="678" y2="25" stroke="#00d68f" stroke-width="1.5"/>
  <!-- Color swatches -->
  <rect x="704" y="8" width="18" height="28" rx="4" fill="#6c5ce7"/>
  <rect x="726" y="8" width="18" height="28" rx="4" fill="#ff6b6b"/>
  <rect x="748" y="8" width="18" height="28" rx="4" fill="#00d68f"/>
  <rect x="770" y="8" width="18" height="28" rx="4" fill="#ffa94d"/>
  <!-- Drawing area -->
  <path d="M100 350 Q200 120 350 200 Q400 250 450 180 Q550 100 600 300" fill="none" stroke="#6c5ce7" stroke-width="3" stroke-linecap="round"/>
  <rect x="150" y="250" width="120" height="80" fill="none" stroke="#00d68f" stroke-width="2.5"/>
  <text x="210" y="295" fill="#00d68f" font-size="16" text-anchor="middle" font-family="Tajawal,sans-serif">مربع</text>
  <circle cx="550" cy="250" r="50" fill="none" stroke="#ff6b6b" stroke-width="2.5"/>
  <text x="550" y="256" fill="#ff6b6b" font-size="14" text-anchor="middle" font-family="Tajawal,sans-serif">دائرة</text>
  <polygon points="350,380 280,460 420,460" fill="none" stroke="#ffa94d" stroke-width="2.5"/>
  <line x1="80" y1="100" x2="200" y2="180" stroke="#00d68f" stroke-width="2" marker-end="url(#arrow)"/>
  <rect x="100" y="140" width="40" height="40" rx="6" fill="#6c5ce744"/>
  <text x="120" y="166" fill="#fff" font-size="10" text-anchor="middle" font-family="sans-serif">أ</text>
  <rect x="220" y="180" width="40" height="40" rx="6" fill="#00d68f44"/>
  <text x="240" y="206" fill="#fff" font-size="10" text-anchor="middle" font-family="sans-serif">ب</text>
  <line x1="140" y1="180" x2="220" y2="200" stroke="#6c5ce7" stroke-width="1.5" stroke-dasharray="4,3"/>
  <text x="180" y="178" fill="#6c5ce7" font-size="9" text-anchor="middle">↔</text>
  <rect x="650" y="420" width="140" height="28" rx="8" fill="#1a1a24"/>
  <text x="660" y="438" fill="#9090a8" font-size="11" font-family="sans-serif">🖌 قلم</text>
  <text x="710" y="438" fill="#9090a8" font-size="11" font-family="sans-serif">🎨 #6c5ce7</text>
  <text x="752" y="438" fill="#9090a8" font-size="11" font-family="sans-serif">📏 5px</text>
  <rect x="10" y="420" width="140" height="28" rx="8" fill="#1a1a24"/>
  <circle cx="24" cy="434" r="4" fill="#00d68f"/>
  <text x="34" y="438" fill="#9090a8" font-size="11" font-family="Tajawal,sans-serif">جاهز</text>
  <rect x="580" y="88" width="72" height="28" rx="8" fill="#1a1a24"/>
  <text x="592" y="106" fill="#f0f0f5" font-size="12" font-family="sans-serif">100%</text>
</svg>
