<svg xmlns="http://www.w3.org/2000/svg" width="800" height="500" viewBox="0 0 800 500">
  <rect width="800" height="500" fill="#0f0f13" rx="12"/>
  <rect x="0" y="0" width="800" height="48" fill="#1a1a24"/>
  <rect x="0" y="48" width="800" height="1" fill="#2e2e42"/>
  <circle cx="24" cy="24" r="12" fill="#6c5ce7"/>
  <text x="42" y="29" fill="#f0f0f5" font-size="14" font-weight="700" font-family="Tajawal,sans-serif">قلم</text>
  <rect x="90" y="12" width="60" height="24" rx="6" fill="#23232f"/>
  <text x="100" y="28" fill="#9090a8" font-size="11" font-family="Tajawal,sans-serif">ملف ▼</text>
  <rect x="160" y="12" width="70" height="24" rx="6" fill="#23232f"/>
  <text x="168" y="28" fill="#9090a8" font-size="11" font-family="Tajawal,sans-serif">تعديل ▼</text>
  <rect x="240" y="12" width="60" height="24" rx="6" fill="#23232f"/>
  <text x="248" y="28" fill="#9090a8" font-size="11" font-family="Tajawal,sans-serif">عرض ▼</text>
  <rect x="644" y="12" width="140" height="24" rx="6" fill="#6c5ce7"/>
  <text x="655" y="28" fill="#fff" font-size="11" font-family="Tajawal,sans-serif">＋ لوحة جديدة</text>
  <text x="30" y="90" fill="#f0f0f5" font-size="22" font-weight="700" font-family="Tajawal,sans-serif">قلم - السبورة البيضاء</text>
  <rect x="30" y="110" width="740" height="1" fill="#2e2e42"/>
  <rect x="30" y="130" width="220" height="160" rx="10" fill="#1a1a24" stroke="#2e2e42" stroke-width="1"/>
  <rect x="40" y="140" width="200" height="80" rx="6" fill="#23232f"/>
  <text x="50" y="180" fill="#9090a8" font-size="24" text-anchor="middle">🖼</text>
  <text x="50" y="240" fill="#f0f0f5" font-size="13" font-weight="600" font-family="Tajawal,sans-serif">لوحة تجريبية</text>
  <text x="50" y="256" fill="#9090a8" font-size="11" font-family="Tajawal,sans-serif">١١/٦/٢٠٢٦</text>
  <rect x="100" y="265" width="60" height="22" rx="5" fill="#6c5ce7"/>
  <text x="108" y="280" fill="#fff" font-size="10" font-family="Tajawal,sans-serif">✏ فتح</text>
  <rect x="168" y="265" width="55" height="22" rx="5" fill="#23232f" stroke="#2e2e42" stroke-width="1"/>
  <text x="176" y="280" fill="#ff6b6b" font-size="10" font-family="Tajawal,sans-serif">🗑 حذف</text>
  <rect x="270" y="130" width="220" height="160" rx="10" fill="#1a1a24" stroke="#2e2e42" stroke-width="1"/>
  <rect x="280" y="140" width="200" height="80" rx="6" fill="#23232f"/>
  <text x="290" y="180" fill="#9090a8" font-size="24">🖼</text>
  <text x="290" y="240" fill="#f0f0f5" font-size="13" font-weight="600" font-family="Tajawal,sans-serif">رسم هندسي</text>
  <text x="290" y="256" fill="#9090a8" font-size="11" font-family="Tajawal,sans-serif">١٠/٦/٢٠٢٦</text>
  <rect x="340" y="265" width="60" height="22" rx="5" fill="#6c5ce7"/>
  <text x="348" y="280" fill="#fff" font-size="10" font-family="Tajawal,sans-serif">✏ فتح</text>
  <rect x="408" y="265" width="55" height="22" rx="5" fill="#23232f" stroke="#2e2e42" stroke-width="1"/>
  <text x="416" y="280" fill="#ff6b6b" font-size="10" font-family="Tajawal,sans-serif">🗑 حذف</text>
  <rect x="510" y="130" width="120" height="160" rx="10" fill="#1a1a24" stroke="#6c5ce7" stroke-width="1.5" stroke-dasharray="6,4"/>
  <text x="570" y="200" fill="#9090a8" font-size="28" text-anchor="middle">＋</text>
  <text x="570" y="240" fill="#9090a8" font-size="11" text-anchor="middle" font-family="Tajawal,sans-serif">لوحة جديدة</text>
</svg>
